<?xml version="1.0" encoding="UTF-8" standalone="no"?>
<svg
   xmlns:dc="http://purl.org/dc/elements/1.1/"
   xmlns:cc="http://creativecommons.org/ns#"
   xmlns:rdf="http://www.w3.org/1999/02/22-rdf-syntax-ns#"
   xmlns:svg="http://www.w3.org/2000/svg"
   xmlns="http://www.w3.org/2000/svg"
   xmlns:sodipodi="http://sodipodi.sourceforge.net/DTD/sodipodi-0.dtd"
   xmlns:inkscape="http://www.inkscape.org/namespaces/inkscape"
   version="1.1"
   width="24"
   height="24"
   viewBox="0 0 24 24"
   id="svg882"
   sodipodi:docname="needle.svg"
   inkscape:version="1.0.2 (e86c8708, 2021-01-15)">
  <metadata
     id="metadata888">
    <rdf:RDF>
      <cc:Work
         rdf:about="">
        <dc:format>image/svg+xml</dc:format>
        <dc:type
           rdf:resource="http://purl.org/dc/dcmitype/StillImage" />
      </cc:Work>
    </rdf:RDF>
  </metadata>
  <defs
     id="defs886" />
  <sodipodi:namedview
     pagecolor="#ffffff"
     bordercolor="#666666"
     borderopacity="1"
     objecttolerance="10"
     gridtolerance="10"
     guidetolerance="10"
     inkscape:pageopacity="0"
     inkscape:pageshadow="2"
     inkscape:window-width="1603"
     inkscape:window-height="873"
     id="namedview884"
     showgrid="false"
     inkscape:zoom="32.833333"
     inkscape:cx="12"
     inkscape:cy="12"
     inkscape:window-x="0"
     inkscape:window-y="25"
     inkscape:window-maximized="0"
     inkscape:current-layer="svg882" />
  <path
     d="M11.15,15.18L9.73,13.77L11.15,12.35L12.56,13.77L13.97,12.35L12.56,10.94L13.97,9.53L15.39,10.94L16.8,9.53L13.97,6.7L6.9,13.77L9.73,16.6L11.15,15.18M3.08,19L6.2,15.89L4.08,13.77L13.97,3.87L16.1,6L17.5,4.58L16.1,3.16L17.5,1.75L21.75,6L20.34,7.4L18.92,6L17.5,7.4L19.63,9.53L9.73,19.42L7.61,17.3L3.08,21.84V19Z"
     id="path880"
     style="fill:#ffffff" />
</svg>
